<svg xmlns="http://www.w3.org/2000/svg" viewBox="0 0 1472.52 479.52"><defs><style>.cls-1{font-size:229.54px;fill:#069999;font-family:FONTSPRINGDEMO-NeogroteskProBlackRegular, FONTSPRING DEMO - Neogrotesk Pro Black;font-weight:800;font-style:oblique;}.cls-2{letter-spacing:-0.01em;}.cls-3,.cls-4,.cls-5{fill:#32245e;}.cls-4{letter-spacing:-0.01em;}.cls-5{letter-spacing:0em;}.cls-6{font-size:47.22px;fill:#14152d;font-family:Poppins-Medium, Poppins;font-weight:500;}.cls-7{fill:#fff;}</style></defs><g id="Artwork"><text class="cls-1" transform="translate(562.09 288.86)"><tspan class="cls-2">U</tspan><tspan x="165.96" y="0">ni</tspan><tspan class="cls-3" x="367.03" y="0">D</tspan><tspan class="cls-4" x="532.3" y="0">a</tspan><tspan class="cls-5" x="656.72" y="0">ta</tspan></text><text class="cls-6" transform="translate(555.4 368.66)">&quot;Early access to your study materials&quot;</text><ellipse class="cls-3" cx="283.78" cy="107.96" rx="11.41" ry="7.39"/><path class="cls-3" d="M397.45,156.74l-118,34.44L161.1,161.49V287.78c122.33,74,236.35,0,236.35,0Z"/><polygon class="cls-3" points="112.41 380.91 443.37 380.91 416.45 353.59 148.34 353.59 112.41 380.91"/><polygon class="cls-3" points="112.41 407.33 112.41 426.34 450.49 426.34 437.03 407.33 112.41 407.33"/><rect class="cls-3" x="112.41" y="437.42" width="338.08" height="9.5"/><path class="cls-7" d="M304.9,101c-3.37-6.89-11.56-11.77-21.12-11.77C271.23,89.22,261,97.63,261,108s10.21,18.74,22.76,18.74c10,0,18.51-5.35,21.56-12.75l175.83-13S320.92,101.47,304.9,101Zm-21.12,14.36c-6.08,0-11.41-3.45-11.41-7.39s5.33-7.38,11.41-7.38S295.2,104,295.2,108,289.86,115.35,283.78,115.35Z"/><path class="cls-3" d="M501.23,142.19V116.41l39.53-11.13L279.41,28.08l-264,74.42,262.67,76.81,218.08-61.47.23,24.35c-14.55,8.61-2.67,19-2.67,19-19.6,50.78-10.4,88.19-10.4,88.19l29.7-1.19c18.11-13.06-10.1-87-10.1-87C515.7,149.61,501.23,142.19,501.23,142.19ZM283.78,126.7C271.23,126.7,261,118.3,261,108s10.21-18.74,22.76-18.74c9.56,0,17.75,4.88,21.12,11.77,16,.48,176.27-.07,176.27-.07L305.34,114C302.29,121.35,293.79,126.7,283.78,126.7Z"/></g></svg>